# xmcd CD database generated by RipIT
#
# Track frame offsets:
# 150
# 2372
# 6960
# 19987
# 31820
# 45307
# 58095
# 71867
# 85837
# 98915
# 110870
# 121837
# 131445
# 154240
# 169455
# 179930
# 192227
# 205177
# 218932
# 229322
# 249520
# 257740
# 272180
# 283370
#
# Disc length: 4131 seconds
#
# Revision: 3
# Processed by: cddbd v1.5.2PL0 Copyright (c) Steve Scherf et al.
# Submitted via: RipIT 3.7.0 www.suwald.com/ripit/ripit.html on 2009-12-24 at 17:29
#
DISCID=69102118
DTITLE=Chrismas sampler - Wunderschöne Weihnachtszeit CD - 02
DYEAR=1900
DGENRE=Weihnachtslieder
TTITLE0=n
TTITLE1=n
TTITLE2=n
TTITLE3=n
TTITLE4=n
TTITLE5=n
TTITLE6=n
TTITLE7=n
TTITLE8=n
TTITLE9=j
TTITLE10=j
TTITLE11=j
TTITLE12=j
TTITLE13=j
TTITLE14=j
TTITLE15=j
TTITLE16=n
TTITLE17=n
TTITLE18=n
TTITLE19=j
TTITLE20=j
TTITLE21=j
TTITLE22=j
TTITLE23=j
EXTD=
EXTT0=
EXTT1=
EXTT2=
EXTT3=
EXTT4=
EXTT5=
EXTT6=
EXTT7=
EXTT8=
EXTT9=
EXTT10=
EXTT11=
EXTT12=
EXTT13=
EXTT14=
EXTT15=
EXTT16=
EXTT17=
EXTT18=
EXTT19=
EXTT20=
EXTT21=
EXTT22=
EXTT23=
PLAYORDER=
